<!DOCTYPE svg PUBLIC "-//W3C//DTD SVG 1.1//EN" "http://www.w3.org/Graphics/SVG/1.1/DTD/svg11.dtd">
<!-- Uploaded to: SVG Repo, www.svgrepo.com, Transformed by: SVG Repo Mixer Tools -->
<svg width="800px" height="800px" viewBox="0 0 24 24" xmlns="http://www.w3.org/2000/svg" fill="none">
<g id="SVGRepo_bgCarrier" stroke-width="0"/>
<g id="SVGRepo_tracerCarrier" stroke-linecap="round" stroke-linejoin="round"/>
<g id="SVGRepo_iconCarrier">
<path fill="#27ae60" fill-rule="evenodd" d="M2 12C2 6.477 6.477 2 12 2s10 4.477 10 10-4.477 10-10 10a9.96 9.96 0 0 1-4.935-1.3l-3.749 1.249a1 1 0 0 1-1.265-1.265l1.25-3.749A9.959 9.959 0 0 1 2 12zm6-5a1 1 0 0 0 0 2h8a1 1 0 1 0 0-2H8zm0 4a1 1 0 1 0 0 2h8a1 1 0 1 0 0-2H8zm0 4a1 1 0 1 0 0 2h3a1 1 0 1 0 0-2H8z" clip-rule="evenodd"/>
</g>
</svg>