 <svg  version="1.0" xmlns="http://www.w3.org/2000/svg"  width="64.000000pt" height="64.000000pt" viewBox="0 0 64.000000 64.000000"  preserveAspectRatio="xMidYMid meet">  <g transform="translate(0.000000,64.000000) scale(0.100000,-0.100000)" fill="#27ae60" stroke="none"> <path d="M190 510 c-151 -27 -213 -208 -111 -324 42 -48 160 -73 212 -45 14 7 30 7 56 -2 132 -43 263 45 263 178 0 56 -23 115 -56 144 -44 39 -84 51 -148 45 -33 -3 -70 -7 -81 -7 -11 -1 -38 2 -60 7 -22 6 -56 7 -75 4z m71 -79 c-43 -60 -45 -158 -5 -216 23 -32 17 -38 -42 -33 -47 4 -61 10 -90 39 -56 56 -59 128 -7 189 33 39 55 49 116 49 l48 1 -20 -29z m256 -13 c61 -61 56 -144 -11 -207 -20 -19 -40 -26 -88 -29 l-61 -5 21 30 c44 62 47 159 6 218 -23 32 -17 38 42 33 47 -4 61 -10 91 -40z m-172 -28 c8 -16 15 -47 15 -70 0 -42 -23 -100 -40 -100 -17 0 -40 58 -40 100 0 42 23 100 40 100 5 0 16 -13 25 -30z"/> </g> </svg> 